<?xml version="1.0" encoding="UTF-8" standalone="no"?>
<!-- Created with Inkscape (http://www.inkscape.org/) -->

<svg
   xmlns:dc="http://purl.org/dc/elements/1.1/"
   xmlns:cc="http://creativecommons.org/ns#"
   xmlns:rdf="http://www.w3.org/1999/02/22-rdf-syntax-ns#"
   xmlns:svg="http://www.w3.org/2000/svg"
   xmlns="http://www.w3.org/2000/svg"
   xmlns:sodipodi="http://sodipodi.sourceforge.net/DTD/sodipodi-0.dtd"
   xmlns:inkscape="http://www.inkscape.org/namespaces/inkscape"
   width="200"
   height="200"
   viewBox="0 0 200 200"
   id="svg3520"
   version="1.1"
   inkscape:version="0.91 r13725"
   sodipodi:docname="BI logo.svg">
  <defs
     id="defs3522" />
  <sodipodi:namedview
     id="base"
     pagecolor="#ffffff"
     bordercolor="#666666"
     borderopacity="1.0"
     inkscape:pageopacity="0.0"
     inkscape:pageshadow="2"
     inkscape:zoom="0.5"
     inkscape:cx="91.396965"
     inkscape:cy="110.66421"
     inkscape:document-units="px"
     inkscape:current-layer="layer1"
     showgrid="false"
     fit-margin-top="0"
     fit-margin-left="0"
     fit-margin-right="0"
     fit-margin-bottom="0"
     units="px"
     inkscape:window-width="1366"
     inkscape:window-height="744"
     inkscape:window-x="0"
     inkscape:window-y="24"
     inkscape:window-maximized="1" />
  <metadata
     id="metadata3525">
    <rdf:RDF>
      <cc:Work
         rdf:about="">
        <dc:format>image/svg+xml</dc:format>
        <dc:type
           rdf:resource="http://purl.org/dc/dcmitype/StillImage" />
        <dc:title></dc:title>
      </cc:Work>
    </rdf:RDF>
  </metadata>
  <g
     inkscape:label="Layer 1"
     inkscape:groupmode="layer"
     id="layer1"
     transform="translate(-187.22235,-258.14463)">
    <path
       d="m 187.22235,458.14463 200,0 0,-200 -200,0 0,200 z"
       style="fill:#003d6a;fill-opacity:1;fill-rule:nonzero;stroke:none"
       id="path12"
       inkscape:connector-curvature="0" />
    <g
       id="g14"
       transform="matrix(5.2262987,0,0,-5.2262987,347.88504,328.63536)">
      <path
         d="m 0,0 0,3.763 -7.527,0 0,-3.763 1.582,0 0,-11.292 -1.582,0 0,-3.765 7.527,0 0,3.765 -1.581,0 L -1.581,0 0,0 Z"
         style="fill:#ffffff;fill-opacity:1;fill-rule:nonzero;stroke:none"
         id="path16"
         inkscape:connector-curvature="0" />
    </g>
    <path
       d="m 277.30284,348.31396 -19.67179,0 0,-19.67179 19.67179,0 0,19.67179 z m 0,39.33835 -19.67179,0 0,-19.66656 19.67179,0 0,19.66656 z m 12.22431,-31.16442 c 7.71924,-4.35873 12.94554,-12.63196 12.94554,-22.12815 0,-14.01693 -11.37243,-25.38935 -25.38936,-25.38935 l -50.52263,0 0,19.67178 8.25755,0 0,59.01014 -8.25755,0 0,19.67702 50.52263,0 c 16.6928,0 27.03564,-11.93164 27.03564,-26.85273 0,-10.44214 -5.93185,-19.49409 -14.59182,-23.98871"
       style="fill:#ffffff;fill-opacity:1;fill-rule:nonzero;stroke:none"
       id="path26"
       inkscape:connector-curvature="0" />
  </g>
</svg>
